<?xml version="1.0" encoding="UTF-8" standalone="no"?>
<!-- Created with Inkscape (http://www.inkscape.org/) -->

<svg
   width="131.83636mm"
   height="294.21429mm"
   viewBox="0 0 131.83636 294.21429"
   version="1.1"
   id="svg5"
   xml:space="preserve"
   inkscape:version="1.2.1 (9c6d41e410, 2022-07-14)"
   sodipodi:docname="B.MuXBeats_-_KEEP_CALM_And_RUN_Linux.svg"
   inkscape:export-filename="B.MuXBeats_-_KEEP_CALM_And_RUN_Linux.png"
   inkscape:export-xdpi="300"
   inkscape:export-ydpi="300"
   xmlns:inkscape="http://www.inkscape.org/namespaces/inkscape"
   xmlns:sodipodi="http://sodipodi.sourceforge.net/DTD/sodipodi-0.dtd"
   xmlns="http://www.w3.org/2000/svg"
   xmlns:svg="http://www.w3.org/2000/svg"
   xmlns:rdf="http://www.w3.org/1999/02/22-rdf-syntax-ns#"
   xmlns:cc="http://creativecommons.org/ns#"
   xmlns:dc="http://purl.org/dc/elements/1.1/"><title
     id="title926">Keep Calm and Run Linux</title><sodipodi:namedview
     id="namedview7"
     pagecolor="#ffffff"
     bordercolor="#cccccc"
     borderopacity="1"
     inkscape:showpageshadow="0"
     inkscape:pageopacity="0"
     inkscape:pagecheckerboard="0"
     inkscape:deskcolor="#d1d1d1"
     inkscape:document-units="mm"
     showgrid="false"
     inkscape:zoom="1"
     inkscape:cx="249"
     inkscape:cy="556.5"
     inkscape:window-width="2560"
     inkscape:window-height="1408"
     inkscape:window-x="0"
     inkscape:window-y="0"
     inkscape:window-maximized="1"
     inkscape:current-layer="layer1"
     showguides="true"><sodipodi:guide
       position="66.330938,401.69491"
       orientation="1,0"
       id="guide12786"
       inkscape:locked="false" /><sodipodi:guide
       position="132.72649,99.143431"
       orientation="0,-1"
       id="guide12788"
       inkscape:locked="false" /><sodipodi:guide
       position="53.033247,228.16005"
       orientation="0,-1"
       id="guide15505"
       inkscape:locked="false" /><sodipodi:guide
       position="0.13456936,297.30573"
       orientation="1,0"
       id="guide15617"
       inkscape:locked="false" /><sodipodi:guide
       position="130.81533,-53.800044"
       orientation="1,0"
       id="guide15619"
       inkscape:locked="false" /><inkscape:grid
       type="xygrid"
       id="grid714" /></sodipodi:namedview><defs
     id="defs2"><rect
       x="915.07007"
       y="1285.0513"
       width="748.2627"
       height="253.46324"
       id="rect15715" /><rect
       x="906.96631"
       y="966.0658"
       width="561.82806"
       height="375.16125"
       id="rect15332" /><clipPath
       clipPathUnits="userSpaceOnUse"
       id="clipPath12175-8"><circle
         style="fill:none;fill-opacity:1;stroke:#000000;stroke-width:1.5675;stroke-opacity:1"
         id="circle12177-5"
         cx="365.56128"
         cy="152.66763"
         r="199.21625" /></clipPath><rect
       x="906.96631"
       y="966.0658"
       width="595.26166"
       height="435.31573"
       id="rect15332-3" /></defs><g
     inkscape:groupmode="layer"
     id="layer1"
     inkscape:label="BACKGROUND LAYER"
     sodipodi:insensitive="true"
     style="display:inline"><rect
       style="fill:#999999;stroke-width:0.264583"
       id="rect712"
       width="131.82657"
       height="294.20465"
       x="0.010253096"
       y="0.011207984" /></g><g
     inkscape:groupmode="layer"
     id="layer2"
     inkscape:label="[export] GRAPHIC LAYER"
     style="display:inline"
     transform="translate(-243.511,-159.99999)"
     inkscape:export-filename="B.MuXBeats_-_KEEP_CALM_And_RUN_Linux.png"
     inkscape:export-xdpi="300"
     inkscape:export-ydpi="300"><g
       id="g5414"
       transform="matrix(1.1125345,0,0,1.0865655,-34.57543,-10.393049)"
       inkscape:export-filename="B.MuXBeats_-_KEEP_CALM_And_RUN_Linux.png"
       inkscape:export-xdpi="300"
       inkscape:export-ydpi="300"><g
         id="g15891"
         transform="translate(-0.26207227)"
         style="display:inline"
         inkscape:label="TEXT"><text
           xml:space="preserve"
           transform="matrix(0.23485248,0,0,0.23485248,26.071359,119.87113)"
           id="text15330-0"
           style="font-style:normal;font-variant:normal;font-weight:normal;font-stretch:normal;font-size:192px;line-height:1;font-family:Arial;-inkscape-font-specification:'Arial, Normal';font-variant-ligatures:normal;font-variant-caps:normal;font-variant-numeric:normal;font-variant-east-asian:normal;writing-mode:lr-tb;direction:ltr;text-orientation:sideways;white-space:pre;shape-inside:url(#rect15332-3);display:inline;fill:#000000"
           x="1205.2694"
           y="0"><tspan
             x="1016.8344"
             y="1115.0113"
             id="tspan354"><tspan
               style="font-weight:bold;font-size:173.333px;-inkscape-font-specification:'Arial, Bold';text-align:center;text-anchor:middle;fill:#ffffff"
               id="tspan352">RUN
</tspan></tspan><tspan
             x="946.93365"
             y="1307.0113"
             id="tspan358"><tspan
               style="font-weight:bold;font-family:P052;-inkscape-font-specification:'P052, Bold';fill:#ffffff"
               id="tspan356">Linux</tspan></tspan></text><text
           xml:space="preserve"
           transform="matrix(0.23485248,0,0,0.23485248,7.3145098,3.6170304)"
           id="text15713"
           style="font-style:normal;font-variant:normal;font-weight:bold;font-stretch:normal;font-size:192px;line-height:1.1;font-family:P052;-inkscape-font-specification:'P052, Bold';font-variant-ligatures:normal;font-variant-caps:normal;font-variant-numeric:normal;font-variant-east-asian:normal;text-align:center;writing-mode:lr-tb;direction:ltr;text-orientation:sideways;white-space:pre;shape-inside:url(#rect15715);display:inline;fill:#ffffff"><tspan
             x="1187.8574"
             y="1432.8908"
             id="tspan362"><tspan
               style="font-weight:normal;font-size:96px;font-family:Arial;-inkscape-font-specification:'Arial, Normal'"
               id="tspan360">AND</tspan></tspan></text><text
           xml:space="preserve"
           transform="matrix(0.23485248,0,0,0.23485248,30.970392,4.0845383)"
           id="text15330"
           style="font-style:normal;font-variant:normal;font-weight:normal;font-stretch:normal;font-size:192px;line-height:1;font-family:Arial;-inkscape-font-specification:'Arial, Normal';font-variant-ligatures:normal;font-variant-caps:normal;font-variant-numeric:normal;font-variant-east-asian:normal;writing-mode:lr-tb;direction:ltr;text-orientation:sideways;white-space:pre;shape-inside:url(#rect15332);display:inline;fill:#000000"
           x="379.94125"
           y="0"
           inkscape:label="text15330"><tspan
             x="951.87546"
             y="1115.0113"
             id="tspan366"><tspan
               style="font-weight:bold;font-size:173.333px;-inkscape-font-specification:'Arial, Bold';text-align:center;text-anchor:middle;fill:#ffffff"
               id="tspan364">KEEP
</tspan></tspan><tspan
             x="937.57211"
             y="1307.0113"
             id="tspan370"><tspan
   style="font-weight:bold;font-size:173.333px;-inkscape-font-specification:'Arial, Bold';text-align:center;text-anchor:middle;fill:#ffffff"
   id="tspan368">CALM</tspan>
</tspan><tspan
             x="906.9668"
             y="1490.1714"
             id="tspan372">A</tspan></text></g><g
         id="g12234"
         style="display:inline"
         transform="matrix(0.17822471,0,0,0.17822471,246.12664,155.72039)"
         inkscape:label="TUX LOGO"><circle
           style="display:inline;fill:#fffff1;fill-opacity:1;stroke:none;stroke-width:1.27014;stroke-opacity:1"
           id="path12181"
           cx="354.29984"
           cy="194.35324"
           r="188.19461"
           inkscape:label="Circle" /><g
           id="g6923"
           clip-path="url(#clipPath12175-8)"
           transform="translate(-11.618163,33.180513)"
           style="display:inline"
           inkscape:label="TUX"><path
             d="m 683.91,675.58061 c -0.01,-0.01 -0.021,-0.021 -0.021,-0.03 -6.069,-6.85 -8.96,-19.55 -12.069,-33.08 -3.101,-13.52 -6.57,-28.1 -17.67,-37.55 -0.021,-0.021 -0.051,-0.04 -0.07,-0.061 -2.2,-1.92 -4.46,-3.539 -6.73,-4.89 -2.279,-1.35 -4.59,-2.45 -6.899,-3.32 15.43,-45.76 9.38,-91.329 -6.2,-132.5 -19.11,-50.54 -52.48,-94.569 -77.97,-124.689 -28.53,-35.99 -56.431,-70.15 -55.88,-120.61 0.849,-77.01 8.469,-219.82000331 -127.051,-220.0100033 -5.51,-0.01 -11.26,0.21999999 -17.25,0.69999999 C 204.66,11.730607 244.83,171.73061 242.58,225.30061 c -2.77,39.18 -10.71,70.06 -37.66,108.36 -31.65,37.64 -76.23,98.57 -97.34,162 -9.96,29.93 -14.7,60.439 -10.33,89.319 -1.37,1.23 -2.67,2.521 -3.92,3.841 -9.29,9.93 -16.16,21.949 -23.81,30.039 -7.15,7.141 -17.33,9.851 -28.53,13.86 -11.2,4.021 -23.49,9.94 -30.95,24.26 0,0 0,0.011 -0.01,0.011 -0.01,0.02 -0.02,0.05 -0.04,0.069 -3.51,6.55 -4.65,13.62 -4.65,20.79 0,6.63 0.98,13.351 1.97,19.82 2.06,13.46 4.15,26.189 1.38,34.81 -8.86,24.23 -10,40.98 -3.76,53.141 6.26,12.18 19.11,17.55 33.64,20.59 29.06,6.06 68.41,4.56 99.42,21 l 2.67,-5.03 -2.64,5.04 c 33.2,17.36 66.86,23.521 93.71,17.39 19.48,-4.439 35.28,-16.039 43.4,-33.88 21,-0.1 44.05,-9 80.97,-11.029 25.05,-2.021 56.34,8.899 92.33,6.899 0.94,3.9 2.301,7.66 4.16,11.23 0.021,0.029 0.04,0.069 0.061,0.1 13.949,27.9 39.869,40.66 67.5,38.48 27.659,-2.181 57.069,-18.49 80.85,-46.78 l -4.36,-3.66 4.391,3.62 c 22.66,-27.48 60.27,-38.87 85.22,-53.91 12.47,-7.52 22.58,-16.939 23.37,-30.62 0.778,-13.67 -7.252,-28.99 -25.712,-49.48 z"
             id="path3"
             style="display:inline;fill:#202020;fill-opacity:1"
             fill="#000000" /><path
             d="m 432.77,232.69 c -2.63,-5.15 -8,-10.05 -17.14,-13.8 l -0.02,-0.01 -0.03,-0.01 c -19.01,-8.14 -27.26,-8.72 -37.87,-15.62 -17.27,-11.1 -31.54,-14.99 -43.4,-14.94 -6.21,0.02 -11.76,1.12 -16.73,2.84 -14.45,4.97 -24.04,15.34 -30.05,21.03 l -0.01,0.01 c 0,0.01 -0.01,0.01 -0.01,0.02 -1.18,1.12 -2.7,2.14 -6.38,4.84 -3.71,2.71 -9.27,6.79 -17.27,12.79 -7.11,5.33 -9.42,12.27 -6.96,20.4 2.45,8.13 10.29,17.51 24.63,25.62 l 0.02,0.02 0.03,0.01 c 8.9,5.23 14.98,12.28 21.96,17.89 3.49,2.8 7.16,5.3 11.58,7.19 4.42,1.89 9.58,3.17 16.04,3.55 15.16,0.88 26.32,-3.67 36.17,-9.31 9.87,-5.63 18.229,-12.52 27.82,-15.63 l 0.02,-0.01 0.021,-0.01 c 19.659,-6.14 33.68,-18.51 38.069,-30.26 2.2,-5.88 2.13,-11.46 -0.49,-16.61 z"
             id="path9"
             style="fill:#ffffff;fill-opacity:1"
             fill="#D6A312" /><path
             d="m 382.89,261.71 c -15.64075,8.1527 -33.91,18.04 -53.35,18.04 -19.43,0 -34.78,-8.98 -45.82,-17.73 -5.52,-4.37 -10,-8.72 -13.38,-11.88 -5.86434,-4.62903 -5.16188,-11.12168 -2.75246,-10.93 4.03863,0.50418 4.64927,5.82168 7.19246,8.2 3.44,3.22 7.75,7.39 12.97,11.53 10.44,8.27 24.36,16.32 41.79,16.32 17.4,0 37.71174,-10.21517 50.11,-17.17 7.02421,-3.94024 15.96224,-11.0031 23.25658,-16.35742 5.58072,-4.09647 5.37722,-9.02921 9.98509,-8.49216 4.60786,0.53705 1.19917,5.45984 -5.25377,11.09153 -6.45295,5.63169 -16.54818,13.10397 -24.7479,17.37805 z"
             id="path11"
             inkscape:connector-curvature="0"
             style="fill:#202020;fill-opacity:1"
             sodipodi:nodetypes="sscccccssszzs" /><path
             d="m 434.51,174.03 c 0.08,10.09 -1.66,18.68 -5.49,27.45 -2.18,5 -4.689,9.2 -7.699,12.84 -1.021,-0.49 -2.08,-0.96 -3.181,-1.41 -3.81,-1.63 -7.18,-2.97 -10.199,-4.11 -3.021,-1.14 -5.37791,-1.91895 -7.80891,-2.75895 1.761,-2.13 5.23,-4.64 6.521,-7.79 1.96,-4.75 2.92,-9.39 3.1,-14.92 0,-0.22 0.07,-0.41 0.07,-0.67 0.11,-5.3 -0.59,-9.83 -2.14,-14.47 -1.62,-4.87 -3.681,-8.37 -6.66,-11.28 -2.99,-2.91 -5.97,-4.23 -9.55,-4.35 -0.17,-0.01 -0.33,-0.01 -0.5,-0.01 -3.36,0.01 -6.28,1.17 -9.301,3.69 -3.17,2.65 -5.52,6.04 -7.479,10.76 -1.95,4.72 -2.91,9.4 -3.101,14.96 -0.029,0.22 -0.029,0.41 -0.029,0.63 -0.07,3.06 0.13,5.86 0.6,8.58 -6.88,-3.43 -15.68209,-5.93105 -21.76209,-7.38105 -0.35,-2.63 -0.55,-5.34 -0.61,-8.18 v -0.77 c -0.11,-10.06 1.54,-18.69 5.41,-27.45 3.87,-8.77 8.66,-15.07 15.399,-20.2 6.75,-5.12 13.381,-7.47 21.23,-7.55 h 0.37 c 7.68,0 14.25,2.26 21,7.15 6.85,4.98 11.79,11.2 15.77,19.9 3.9,8.48 5.78,16.77 5.971,26.6 -10e-4,0.26 -10e-4,0.48 0.069,0.74 z"
             id="path15"
             inkscape:connector-curvature="0"
             style="fill:#ffffff"
             sodipodi:nodetypes="ccccccccccccccccccccccccscccc" /><path
             d="m 318.43,184.08 c -1.01,0.29 -1.99,0.6 -2.96,0.93 -5.5,1.9 -9.86686,3.99686 -14.08686,6.78686 0.41,-2.92 0.47,-5.88 0.15,-9.19 -0.03,-0.18 -0.03,-0.33 -0.03,-0.51 -0.44,-4.39 -1.37,-8.07 -2.92,-11.79 -1.65,-3.87 -3.5,-6.6 -5.93,-8.7 -2.2,-1.9 -4.28,-2.78 -6.58,-2.76 -0.23,0 -0.47,0.01 -0.71,0.03 -2.58,0.22 -4.72,1.48 -6.75,3.95 -2.02,2.46 -3.35,5.52 -4.31,9.58 -0.96,4.05 -1.21,8.03 -0.81,12.6 0,0.18 0.04,0.33 0.04,0.51 0.44,4.43 1.33,8.11 2.91,11.83 1.62,3.83 3.5,6.56 5.93,8.66 0.41,0.35 0.81,0.67 1.21,0.95 -2.52,1.95 -4.21314,3.33314 -6.29314,4.85314 -1.33,0.97 -2.91,2.13 -4.75,3.49 -4.01,-3.76 -7.14,-8.48 -9.88,-14.71 -3.24,-7.36 -4.97,-14.73 -5.49,-23.43 v -0.07 c -0.48,-8.7 0.37,-16.18 2.76,-23.92 2.4,-7.74 5.6,-13.34 10.25,-17.94 4.64,-4.61 9.32,-6.93 14.96,-7.22 0.44,-0.02 0.87,-0.03 1.3,-0.03 5.11,0.01 9.67,1.71 14.39,5.48 5.12,4.09 8.99,9.32 12.23,16.69 3.25,7.37 4.98,14.74 5.46,23.44 v 0.07 c 0.23,3.65 0.2,7.09 -0.09,10.42 z"
             id="path17"
             inkscape:connector-curvature="0"
             style="fill:#ffffff"
             sodipodi:nodetypes="cccccccccccccccccccccccccccccc" /><path
             sodipodi:nodetypes="aaaaaaa"
             inkscape:connector-curvature="0"
             id="path28396-7"
             d="m 344.08661,204.88969 c 0.64684,2.07624 3.99301,1.73211 5.92629,2.72792 1.69642,0.87378 3.06086,2.78891 4.96829,2.84398 1.82043,0.0526 4.65359,-0.63043 4.89041,-2.43615 0.31286,-2.38563 -3.17083,-3.90165 -5.41255,-4.77563 -2.88469,-1.12471 -6.58056,-1.69534 -9.28659,-0.19073 -0.6201,0.34477 -1.29689,1.15328 -1.08585,1.83064 z"
             style="opacity:1;fill:#202020;fill-opacity:1;stroke:none" /><path
             style="opacity:1;fill:#202020;fill-opacity:1;stroke:none"
             d="m 324.32226,204.88969 c -0.64684,2.07624 -3.99301,1.73211 -5.92629,2.72792 -1.69642,0.87378 -3.06086,2.78891 -4.96829,2.84398 -1.82043,0.0526 -4.65359,-0.63043 -4.89041,-2.43615 -0.31286,-2.38563 3.17083,-3.90165 5.41255,-4.77563 2.88469,-1.12471 6.58056,-1.69534 9.28659,-0.19073 0.6201,0.34477 1.29689,1.15328 1.08585,1.83064 z"
             id="path5461"
             inkscape:connector-curvature="0"
             sodipodi:nodetypes="aaaaaaa" /><path
             style="fill:#ffffff"
             d="m 300.14174,187.68119 c -0.27884,-0.42507 0.58546,-17.50984 -9.19569,-25.45621 -9.78116,-7.94637 9.60702,9.98361 9.19569,25.45621 z"
             id="path4163" /><path
             style="fill:#ffffff"
             d="m 406.98202,184.95084 c -0.23259,-0.45204 2.42348,-17.3512 -6.46783,-26.28206 -8.89132,-8.93086 8.50392,10.93849 6.46783,26.28206 z"
             id="path4163-3" /><path
             style="fill:#ffffff;stroke-width:0.656932"
             d="m 289.46053,120.59856 c 0,0 17.32315,-1.27732 24.32164,15.69848 6.99849,16.9758 -1.62912,-14.03871 -24.32164,-15.69848 z"
             id="path4338" /><path
             style="fill:#ffffff;stroke-width:0.656932"
             d="m 400.57317,116.64641 c 0,0 17.32315,-1.27732 24.32164,15.69848 6.99849,16.9758 -1.62912,-14.03871 -24.32164,-15.69848 z"
             id="path4338-6" /></g></g></g></g><metadata
     id="metadata924"><rdf:RDF><cc:Work
         rdf:about=""><cc:license
           rdf:resource="http://creativecommons.org/publicdomain/zero/1.0/" /><dc:creator><cc:Agent><dc:title>Bernd Bierlein</dc:title></cc:Agent></dc:creator><dc:publisher><cc:Agent><dc:title>Bernd Bierlein aka B.MuXBeats</dc:title></cc:Agent></dc:publisher><dc:title>Keep Calm and Run Linux</dc:title><dc:date>2022-08-02</dc:date></cc:Work><cc:License
         rdf:about="http://creativecommons.org/publicdomain/zero/1.0/"><cc:permits
           rdf:resource="http://creativecommons.org/ns#Reproduction" /><cc:permits
           rdf:resource="http://creativecommons.org/ns#Distribution" /><cc:permits
           rdf:resource="http://creativecommons.org/ns#DerivativeWorks" /></cc:License></rdf:RDF></metadata></svg>
